<svg width="135" height="63" viewBox="0 0 135 63" fill="none" xmlns="http://www.w3.org/2000/svg">
<path d="M18 63V54H9V45H0V18H9V9H18V0H63V9H27V18H18V45H27V54H45V36H36V27H63V63H18ZM72 63V0H126V9H135V27H126V36H135V54H126V63H72ZM90 27H117V9H90V27ZM90 54H117V36H90V54Z" fill="#36B7FF"/>
<path d="M18 63H17V64H18V63ZM18 54H19V53H18V54ZM9 54H8V55H9V54ZM9 45H10V44H9V45ZM0 45H-1V46H0V45ZM0 18V17H-1V18H0ZM9 18V19H10V18H9ZM9 9V8H8V9H9ZM18 9V10H19V9H18ZM18 0V-1H17V0H18ZM63 0H64V-1H63V0ZM63 9V10H64V9H63ZM27 9V8H26V9H27ZM27 18V19H28V18H27ZM18 18V17H17V18H18ZM18 45H17V46H18V45ZM27 45H28V44H27V45ZM27 54H26V55H27V54ZM45 54V55H46V54H45ZM45 36H46V35H45V36ZM36 36H35V37H36V36ZM36 27V26H35V27H36ZM63 27H64V26H63V27ZM63 63V64H64V63H63ZM19 63V54H17V63H19ZM18 53H9V55H18V53ZM10 54V45H8V54H10ZM9 44H0V46H9V44ZM1 45V18H-1V45H1ZM0 19H9V17H0V19ZM10 18V9H8V18H10ZM9 10H18V8H9V10ZM19 9V0H17V9H19ZM18 1H63V-1H18V1ZM62 0V9H64V0H62ZM63 8H27V10H63V8ZM26 9V18H28V9H26ZM27 17H18V19H27V17ZM17 18V45H19V18H17ZM18 46H27V44H18V46ZM26 45V54H28V45H26ZM27 55H45V53H27V55ZM46 54V36H44V54H46ZM45 35H36V37H45V35ZM37 36V27H35V36H37ZM36 28H63V26H36V28ZM62 27V63H64V27H62ZM63 62H18V64H63V62ZM72 63H71V64H72V63ZM72 0V-1H71V0H72ZM126 0H127V-1H126V0ZM126 9H125V10H126V9ZM135 9H136V8H135V9ZM135 27V28H136V27H135ZM126 27V26H125V27H126ZM126 36H125V37H126V36ZM135 36H136V35H135V36ZM135 54V55H136V54H135ZM126 54V53H125V54H126ZM126 63V64H127V63H126ZM90 27H89V28H90V27ZM117 27V28H118V27H117ZM117 9H118V8H117V9ZM90 9V8H89V9H90ZM90 54H89V55H90V54ZM117 54V55H118V54H117ZM117 36H118V35H117V36ZM90 36V35H89V36H90ZM73 63V0H71V63H73ZM72 1H126V-1H72V1ZM125 0V9H127V0H125ZM126 10H135V8H126V10ZM134 9V27H136V9H134ZM135 26H126V28H135V26ZM125 27V36H127V27H125ZM126 37H135V35H126V37ZM134 36V54H136V36H134ZM135 53H126V55H135V53ZM125 54V63H127V54H125ZM126 62H72V64H126V62ZM90 28H117V26H90V28ZM118 27V9H116V27H118ZM117 8H90V10H117V8ZM89 9V27H91V9H89ZM90 55H117V53H90V55ZM118 54V36H116V54H118ZM117 35H90V37H117V35ZM89 36V54H91V36H89Z" fill="black"/>
</svg>
